<svg width="191" height="134" viewBox="0 0 191 134" fill="none" xmlns="http://www.w3.org/2000/svg">
<g filter="url(#filter0_f_520_729)">
<path d="M10.0045 61.2154C9.69192 47.0704 25.9029 41.8113 25.9029 41.8113C25.9029 41.8113 24.1644 33.1893 34.3152 25.1906C49.2119 13.4522 63.5653 32.4274 63.5653 32.4274C63.5653 32.4274 63.9709 10.1822 78.3833 10.0013C91.5455 9.83617 98.1405 25.1906 98.1405 25.1906C98.1405 25.1906 99.7381 18.7012 112.65 14.4547C125.553 10.2108 133.333 26.622 133.333 26.622C133.333 26.622 142.888 20.211 153.708 23.3615C166.459 27.0743 163.046 44.4356 163.046 44.4356C163.046 44.4356 179.572 47.7556 180.566 61.2154C181.624 75.5605 161.889 80.4605 161.889 80.4605C161.889 80.4605 169.599 93.8484 163.046 103.125C156.431 112.491 141.514 108.533 141.514 108.533C141.514 108.533 129.373 124.081 116.74 123.961C105.033 123.849 88.5706 110.6 88.5706 110.6C88.5706 110.6 78.8622 124.843 67.6556 123.961C57.3281 123.148 48.1299 110.6 48.1299 110.6C48.1299 110.6 28.8002 113.251 23.6648 99.1489C19.1652 86.7927 31.1509 77.1204 31.1509 77.1204C31.1509 77.1204 10.318 75.4051 10.0045 61.2154Z" fill="#E9A6A6" fill-opacity="0.25"/>
</g>
<path d="M10.0045 55.2154C9.69192 41.0704 25.9029 35.8113 25.9029 35.8113C25.9029 35.8113 24.1644 27.1893 34.3152 19.1906C49.2119 7.45219 63.5653 26.4274 63.5653 26.4274C63.5653 26.4274 63.9709 4.18217 78.3833 4.00132C91.5455 3.83617 98.1405 19.1906 98.1405 19.1906C98.1405 19.1906 99.7381 12.7012 112.65 8.45472C125.553 4.21085 133.333 20.622 133.333 20.622C133.333 20.622 142.888 14.211 153.708 17.3615C166.459 21.0743 163.046 38.4356 163.046 38.4356C163.046 38.4356 179.572 41.7556 180.566 55.2154C181.624 69.5605 161.889 74.4605 161.889 74.4605C161.889 74.4605 169.599 87.8484 163.046 97.1251C156.431 106.491 141.514 102.533 141.514 102.533C141.514 102.533 129.373 118.081 116.74 117.961C105.033 117.849 88.5706 104.6 88.5706 104.6C88.5706 104.6 78.8622 118.843 67.6556 117.961C57.3281 117.148 48.1299 104.6 48.1299 104.6C48.1299 104.6 28.8002 107.251 23.6648 93.1489C19.1652 80.7927 31.1509 71.1204 31.1509 71.1204C31.1509 71.1204 10.318 69.4051 10.0045 55.2154Z" fill="white" stroke="#E6E8E6" stroke-width="1.86219"/>
<path d="M110.426 59.9268H81.2676" stroke="black" stroke-width="3.83333" stroke-linecap="round" stroke-linejoin="round"/>
<path d="M95.847 76.5302L81.2676 59.9266L95.847 43.323" stroke="black" stroke-width="3.83333" stroke-linecap="round" stroke-linejoin="round"/>
<defs>
<filter id="filter0_f_520_729" x="0" y="0" width="190.606" height="134" filterUnits="userSpaceOnUse" color-interpolation-filters="sRGB">
<feFlood flood-opacity="0" result="BackgroundImageFix"/>
<feBlend mode="normal" in="SourceGraphic" in2="BackgroundImageFix" result="shape"/>
<feGaussianBlur stdDeviation="5" result="effect1_foregroundBlur_520_729"/>
</filter>
</defs>
</svg>
