<svg width="571" height="82" viewBox="0 0 571 82" fill="none" xmlns="http://www.w3.org/2000/svg">
<rect width="182" height="40" rx="10" fill="#161316"/>
<path d="M102.062 37L103.972 25.3636H105.79L103.881 37H102.062ZM96.8523 34.1136L97.1534 32.2955H106.244L105.943 34.1136H96.8523ZM97.9716 37L99.8807 25.3636H101.699L99.7898 37H97.9716ZM97.517 30.0682L97.8239 28.25H106.915L106.608 30.0682H97.517ZM113.084 25.3636V37H110.624V27.6989H110.555L107.891 29.3693V27.1875L110.771 25.3636H113.084ZM120.315 37.1591C119.717 37.1553 119.139 37.0549 118.582 36.858C118.029 36.661 117.533 36.3409 117.094 35.8977C116.654 35.4545 116.306 34.8674 116.048 34.1364C115.795 33.4053 115.668 32.5076 115.668 31.4432C115.671 30.4659 115.783 29.5928 116.003 28.8239C116.226 28.0511 116.545 27.3958 116.957 26.858C117.374 26.3201 117.872 25.911 118.452 25.6307C119.031 25.3466 119.681 25.2045 120.401 25.2045C121.177 25.2045 121.863 25.3561 122.457 25.6591C123.052 25.9583 123.529 26.3655 123.889 26.8807C124.253 27.3958 124.473 27.9735 124.548 28.6136H122.122C122.027 28.2083 121.829 27.8902 121.526 27.6591C121.223 27.428 120.848 27.3125 120.401 27.3125C119.643 27.3125 119.067 27.642 118.673 28.3011C118.283 28.9602 118.084 29.8561 118.077 30.9886H118.156C118.33 30.6439 118.565 30.3504 118.861 30.108C119.16 29.8617 119.499 29.6742 119.878 29.5455C120.26 29.4129 120.664 29.3466 121.088 29.3466C121.777 29.3466 122.391 29.5095 122.929 29.8352C123.467 30.1572 123.891 30.6004 124.202 31.1648C124.512 31.7292 124.668 32.375 124.668 33.1023C124.668 33.8902 124.484 34.5909 124.116 35.2045C123.753 35.8182 123.243 36.2992 122.588 36.6477C121.937 36.9924 121.179 37.1629 120.315 37.1591ZM120.304 35.2273C120.683 35.2273 121.022 35.1364 121.321 34.9545C121.62 34.7727 121.855 34.5265 122.026 34.2159C122.196 33.9053 122.281 33.5568 122.281 33.1705C122.281 32.7841 122.196 32.4375 122.026 32.1307C121.859 31.8239 121.628 31.5795 121.332 31.3977C121.037 31.2159 120.7 31.125 120.321 31.125C120.037 31.125 119.774 31.178 119.531 31.2841C119.293 31.3902 119.082 31.5379 118.901 31.7273C118.723 31.9167 118.582 32.1364 118.48 32.3864C118.378 32.6326 118.327 32.8958 118.327 33.1761C118.327 33.5511 118.412 33.8939 118.582 34.2045C118.757 34.5152 118.991 34.7633 119.287 34.9489C119.586 35.1345 119.925 35.2273 120.304 35.2273ZM131.474 25.3636V37H129.014V27.6989H128.946L126.281 29.3693V27.1875L129.162 25.3636H131.474ZM138.541 37.1591C137.693 37.1591 136.937 37.0133 136.274 36.7216C135.615 36.4261 135.094 36.0208 134.712 35.5057C134.333 34.9867 134.138 34.3883 134.126 33.7102H136.604C136.619 33.9943 136.712 34.2443 136.882 34.4602C137.056 34.6723 137.287 34.8371 137.575 34.9545C137.863 35.072 138.187 35.1307 138.547 35.1307C138.922 35.1307 139.253 35.0644 139.541 34.9318C139.829 34.7992 140.054 34.6155 140.217 34.3807C140.38 34.1458 140.462 33.875 140.462 33.5682C140.462 33.2576 140.375 32.983 140.2 32.7443C140.03 32.5019 139.784 32.3125 139.462 32.1761C139.143 32.0398 138.765 31.9716 138.325 31.9716H137.24V30.1648H138.325C138.696 30.1648 139.024 30.1004 139.308 29.9716C139.596 29.8428 139.82 29.6648 139.979 29.4375C140.138 29.2064 140.217 28.9375 140.217 28.6307C140.217 28.339 140.147 28.0833 140.007 27.8636C139.871 27.6402 139.678 27.4659 139.428 27.3409C139.181 27.2159 138.893 27.1534 138.564 27.1534C138.231 27.1534 137.926 27.214 137.649 27.3352C137.373 27.4527 137.151 27.6212 136.984 27.8409C136.818 28.0606 136.729 28.3182 136.717 28.6136H134.359C134.371 27.9432 134.562 27.3523 134.933 26.8409C135.304 26.3295 135.804 25.9299 136.433 25.642C137.066 25.3504 137.78 25.2045 138.575 25.2045C139.378 25.2045 140.081 25.3504 140.683 25.642C141.286 25.9337 141.753 26.3277 142.087 26.8239C142.424 27.3163 142.59 27.8693 142.587 28.483C142.59 29.1345 142.388 29.678 141.979 30.1136C141.573 30.5492 141.045 30.8258 140.393 30.9432V31.0341C141.25 31.1439 141.901 31.4413 142.348 31.9261C142.799 32.4072 143.022 33.0095 143.018 33.733C143.022 34.3958 142.831 34.9848 142.445 35.5C142.062 36.0152 141.534 36.4205 140.859 36.7159C140.185 37.0114 139.412 37.1591 138.541 37.1591ZM149.849 25.3636V37H147.389V27.6989H147.321L144.656 29.3693V27.1875L147.537 25.3636H149.849ZM157.081 37.1591C156.482 37.1553 155.905 37.0549 155.348 36.858C154.795 36.661 154.299 36.3409 153.859 35.8977C153.42 35.4545 153.071 34.8674 152.814 34.1364C152.56 33.4053 152.433 32.5076 152.433 31.4432C152.437 30.4659 152.549 29.5928 152.768 28.8239C152.992 28.0511 153.31 27.3958 153.723 26.858C154.14 26.3201 154.638 25.911 155.217 25.6307C155.797 25.3466 156.446 25.2045 157.166 25.2045C157.943 25.2045 158.628 25.3561 159.223 25.6591C159.818 25.9583 160.295 26.3655 160.655 26.8807C161.018 27.3958 161.238 27.9735 161.314 28.6136H158.888C158.793 28.2083 158.594 27.8902 158.291 27.6591C157.988 27.428 157.613 27.3125 157.166 27.3125C156.409 27.3125 155.833 27.642 155.439 28.3011C155.049 28.9602 154.85 29.8561 154.842 30.9886H154.922C155.096 30.6439 155.331 30.3504 155.626 30.108C155.926 29.8617 156.265 29.6742 156.643 29.5455C157.026 29.4129 157.429 29.3466 157.854 29.3466C158.543 29.3466 159.157 29.5095 159.695 29.8352C160.232 30.1572 160.657 30.6004 160.967 31.1648C161.278 31.7292 161.433 32.375 161.433 33.1023C161.433 33.8902 161.25 34.5909 160.882 35.2045C160.518 35.8182 160.009 36.2992 159.354 36.6477C158.702 36.9924 157.945 37.1629 157.081 37.1591ZM157.07 35.2273C157.448 35.2273 157.787 35.1364 158.087 34.9545C158.386 34.7727 158.621 34.5265 158.791 34.2159C158.962 33.9053 159.047 33.5568 159.047 33.1705C159.047 32.7841 158.962 32.4375 158.791 32.1307C158.625 31.8239 158.393 31.5795 158.098 31.3977C157.803 31.2159 157.465 31.125 157.087 31.125C156.803 31.125 156.539 31.178 156.297 31.2841C156.058 31.3902 155.848 31.5379 155.666 31.7273C155.488 31.9167 155.348 32.1364 155.246 32.3864C155.143 32.6326 155.092 32.8958 155.092 33.1761C155.092 33.5511 155.178 33.8939 155.348 34.2045C155.522 34.5152 155.757 34.7633 156.053 34.9489C156.352 35.1345 156.691 35.2273 157.07 35.2273Z" fill="white"/>
<path d="M7.72159 76V58.5455H14.267C15.608 58.5455 16.733 58.7955 17.642 59.2955C18.5568 59.7955 19.2472 60.483 19.7131 61.358C20.1847 62.2273 20.4205 63.2159 20.4205 64.3239C20.4205 65.4432 20.1847 66.4375 19.7131 67.3068C19.2415 68.1761 18.5455 68.8608 17.625 69.3608C16.7045 69.8551 15.571 70.1023 14.2244 70.1023H9.88636V67.5028H13.7983C14.5824 67.5028 15.2244 67.3665 15.7244 67.0938C16.2244 66.821 16.5938 66.446 16.8324 65.9688C17.0767 65.4915 17.1989 64.9432 17.1989 64.3239C17.1989 63.7045 17.0767 63.1591 16.8324 62.6875C16.5938 62.2159 16.2216 61.8494 15.7159 61.5881C15.2159 61.321 14.571 61.1875 13.7812 61.1875H10.8835V76H7.72159ZM23.0305 76V62.9091H26.022V65.0909H26.1584C26.397 64.3352 26.8061 63.7528 27.3857 63.3438C27.9709 62.929 28.6385 62.7216 29.3885 62.7216C29.5589 62.7216 29.7493 62.7301 29.9595 62.7472C30.1754 62.7585 30.3544 62.7784 30.4964 62.8068V65.6449C30.3658 65.5994 30.1584 65.5597 29.8743 65.5256C29.5959 65.4858 29.326 65.4659 29.0646 65.4659C28.5021 65.4659 27.9964 65.5881 27.5476 65.8324C27.1044 66.071 26.755 66.4034 26.4993 66.8295C26.2436 67.2557 26.1158 67.7472 26.1158 68.304V76H23.0305ZM32.5462 76V62.9091H35.6314V76H32.5462ZM34.0973 61.0511C33.6087 61.0511 33.1882 60.8892 32.8359 60.5653C32.4837 60.2358 32.3075 59.8409 32.3075 59.3807C32.3075 58.9148 32.4837 58.5199 32.8359 58.196C33.1882 57.8665 33.6087 57.7017 34.0973 57.7017C34.5916 57.7017 35.0121 57.8665 35.3587 58.196C35.7109 58.5199 35.8871 58.9148 35.8871 59.3807C35.8871 59.8409 35.7109 60.2358 35.3587 60.5653C35.0121 60.8892 34.5916 61.0511 34.0973 61.0511ZM38.804 76V62.9091H41.7528V65.1335H41.9062C42.179 64.3835 42.6307 63.7983 43.2614 63.3778C43.892 62.9517 44.6449 62.7386 45.5199 62.7386C46.4062 62.7386 47.1534 62.9545 47.7614 63.3864C48.375 63.8125 48.8068 64.3949 49.0568 65.1335H49.1932C49.483 64.4062 49.9716 63.8267 50.6591 63.3949C51.3523 62.9574 52.1733 62.7386 53.1222 62.7386C54.3267 62.7386 55.3097 63.1193 56.071 63.8807C56.8324 64.642 57.2131 65.7528 57.2131 67.2131V76H54.1193V67.6903C54.1193 66.8778 53.9034 66.2841 53.4716 65.9091C53.0398 65.5284 52.5114 65.3381 51.8864 65.3381C51.142 65.3381 50.5597 65.571 50.1392 66.0369C49.7244 66.4972 49.517 67.0966 49.517 67.8352V76H46.4915V67.5625C46.4915 66.8864 46.2869 66.3466 45.8778 65.9432C45.4744 65.5398 44.946 65.3381 44.2926 65.3381C43.8494 65.3381 43.446 65.4517 43.0824 65.679C42.7188 65.9006 42.429 66.2159 42.2131 66.625C41.9972 67.0284 41.8892 67.5 41.8892 68.0398V76H38.804ZM64.1101 76.2642C63.2805 76.2642 62.5334 76.1165 61.8686 75.821C61.2095 75.5199 60.6868 75.0767 60.3004 74.4915C59.9197 73.9062 59.7294 73.1847 59.7294 72.3267C59.7294 71.5881 59.8658 70.9773 60.1385 70.4943C60.4112 70.0114 60.7834 69.625 61.255 69.3352C61.7266 69.0455 62.2578 68.8267 62.8487 68.679C63.4453 68.5256 64.0618 68.4148 64.6982 68.3466C65.4652 68.267 66.0874 68.196 66.5646 68.1335C67.0419 68.0653 67.3885 67.9631 67.6044 67.8267C67.826 67.6847 67.9368 67.4659 67.9368 67.1705V67.1193C67.9368 66.4773 67.7464 65.9801 67.3658 65.6278C66.9851 65.2756 66.4368 65.0994 65.7209 65.0994C64.9652 65.0994 64.3658 65.2642 63.9226 65.5938C63.4851 65.9233 63.1896 66.3125 63.0362 66.7614L60.1555 66.3523C60.3828 65.5568 60.7578 64.892 61.2805 64.358C61.8033 63.8182 62.4425 63.4148 63.1982 63.1477C63.9538 62.875 64.7891 62.7386 65.7038 62.7386C66.3345 62.7386 66.9624 62.8125 67.5874 62.9602C68.2124 63.108 68.7834 63.3523 69.3004 63.6932C69.8175 64.0284 70.2322 64.4858 70.5447 65.0653C70.8629 65.6449 71.022 66.3693 71.022 67.2386V76H68.0561V74.2017H67.9538C67.7663 74.5653 67.5021 74.9062 67.1612 75.2244C66.826 75.5369 66.4027 75.7898 65.8913 75.983C65.3857 76.1705 64.7919 76.2642 64.1101 76.2642ZM64.9112 73.9972C65.5305 73.9972 66.0675 73.875 66.522 73.6307C66.9766 73.3807 67.326 73.0511 67.5703 72.642C67.8203 72.233 67.9453 71.7869 67.9453 71.304V69.7614C67.8487 69.8409 67.6839 69.9148 67.451 69.983C67.2237 70.0511 66.968 70.1108 66.6839 70.1619C66.3999 70.2131 66.1186 70.2585 65.8402 70.2983C65.5618 70.3381 65.3203 70.3722 65.1158 70.4006C64.6555 70.4631 64.2436 70.5653 63.88 70.7074C63.5163 70.8494 63.2294 71.0483 63.0192 71.304C62.8089 71.554 62.7038 71.8778 62.7038 72.2756C62.7038 72.8438 62.9112 73.2727 63.326 73.5625C63.7408 73.8523 64.2692 73.9972 64.9112 73.9972ZM74.1243 76V62.9091H77.1158V65.0909H77.2521C77.4908 64.3352 77.8999 63.7528 78.4794 63.3438C79.0646 62.929 79.7322 62.7216 80.4822 62.7216C80.6527 62.7216 80.843 62.7301 81.0533 62.7472C81.2692 62.7585 81.4482 62.7784 81.5902 62.8068V65.6449C81.4595 65.5994 81.2521 65.5597 80.968 65.5256C80.6896 65.4858 80.4197 65.4659 80.1584 65.4659C79.5959 65.4659 79.0902 65.5881 78.6413 65.8324C78.1982 66.071 77.8487 66.4034 77.593 66.8295C77.3374 67.2557 77.2095 67.7472 77.2095 68.304V76H74.1243ZM85.956 80.9091C85.5355 80.9091 85.1463 80.875 84.7884 80.8068C84.4361 80.7443 84.1548 80.6705 83.9446 80.5852L84.6605 78.1818C85.1094 78.3125 85.5099 78.375 85.8622 78.3693C86.2145 78.3636 86.5241 78.2528 86.7912 78.0369C87.0639 77.8267 87.294 77.4744 87.4815 76.9801L87.7457 76.2727L82.9986 62.9091H86.2713L89.2884 72.7955H89.4247L92.4503 62.9091H95.7315L90.4901 77.5852C90.2457 78.2784 89.9219 78.8722 89.5185 79.3665C89.1151 79.8665 88.6207 80.2472 88.0355 80.5085C87.456 80.7756 86.7628 80.9091 85.956 80.9091ZM109.53 76.2557C108.223 76.2557 107.101 75.9688 106.163 75.3949C105.232 74.821 104.513 74.0284 104.007 73.017C103.507 72 103.257 70.8295 103.257 69.5057C103.257 68.1761 103.513 67.0028 104.024 65.9858C104.536 64.9631 105.257 64.1676 106.189 63.5994C107.126 63.0256 108.234 62.7386 109.513 62.7386C110.575 62.7386 111.516 62.9347 112.334 63.3267C113.158 63.7131 113.814 64.2614 114.303 64.9716C114.791 65.6761 115.07 66.5 115.138 67.4432H112.189C112.07 66.8125 111.786 66.2869 111.337 65.8665C110.893 65.4403 110.3 65.2273 109.555 65.2273C108.925 65.2273 108.371 65.3977 107.893 65.7386C107.416 66.0739 107.044 66.5568 106.777 67.1875C106.516 67.8182 106.385 68.5739 106.385 69.4545C106.385 70.3466 106.516 71.1136 106.777 71.7557C107.038 72.392 107.405 72.8835 107.876 73.2301C108.354 73.571 108.913 73.7415 109.555 73.7415C110.01 73.7415 110.416 73.6562 110.774 73.4858C111.138 73.3097 111.442 73.0568 111.686 72.7273C111.93 72.3977 112.098 71.9972 112.189 71.5256H115.138C115.064 72.4517 114.791 73.2727 114.32 73.9886C113.848 74.6989 113.206 75.2557 112.393 75.6591C111.581 76.0568 110.626 76.2557 109.53 76.2557ZM123.381 76.2557C122.103 76.2557 120.995 75.9744 120.058 75.4119C119.12 74.8494 118.393 74.0625 117.876 73.0511C117.364 72.0398 117.109 70.858 117.109 69.5057C117.109 68.1534 117.364 66.9687 117.876 65.9517C118.393 64.9347 119.12 64.1449 120.058 63.5824C120.995 63.0199 122.103 62.7386 123.381 62.7386C124.66 62.7386 125.768 63.0199 126.705 63.5824C127.643 64.1449 128.367 64.9347 128.879 65.9517C129.396 66.9687 129.654 68.1534 129.654 69.5057C129.654 70.858 129.396 72.0398 128.879 73.0511C128.367 74.0625 127.643 74.8494 126.705 75.4119C125.768 75.9744 124.66 76.2557 123.381 76.2557ZM123.398 73.7841C124.092 73.7841 124.671 73.5937 125.137 73.2131C125.603 72.8267 125.95 72.3097 126.177 71.6619C126.41 71.0142 126.526 70.2926 126.526 69.4972C126.526 68.696 126.41 67.9716 126.177 67.3239C125.95 66.6705 125.603 66.1506 125.137 65.7642C124.671 65.3778 124.092 65.1847 123.398 65.1847C122.688 65.1847 122.097 65.3778 121.626 65.7642C121.16 66.1506 120.81 66.6705 120.577 67.3239C120.35 67.9716 120.237 68.696 120.237 69.4972C120.237 70.2926 120.35 71.0142 120.577 71.6619C120.81 72.3097 121.16 72.8267 121.626 73.2131C122.097 73.5937 122.688 73.7841 123.398 73.7841ZM135.358 58.5455V76H132.273V58.5455H135.358ZM144.241 76.2557C142.962 76.2557 141.854 75.9744 140.917 75.4119C139.979 74.8494 139.252 74.0625 138.735 73.0511C138.224 72.0398 137.968 70.858 137.968 69.5057C137.968 68.1534 138.224 66.9687 138.735 65.9517C139.252 64.9347 139.979 64.1449 140.917 63.5824C141.854 63.0199 142.962 62.7386 144.241 62.7386C145.519 62.7386 146.627 63.0199 147.565 63.5824C148.502 64.1449 149.227 64.9347 149.738 65.9517C150.255 66.9687 150.513 68.1534 150.513 69.5057C150.513 70.858 150.255 72.0398 149.738 73.0511C149.227 74.0625 148.502 74.8494 147.565 75.4119C146.627 75.9744 145.519 76.2557 144.241 76.2557ZM144.258 73.7841C144.951 73.7841 145.531 73.5937 145.996 73.2131C146.462 72.8267 146.809 72.3097 147.036 71.6619C147.269 71.0142 147.386 70.2926 147.386 69.4972C147.386 68.696 147.269 67.9716 147.036 67.3239C146.809 66.6705 146.462 66.1506 145.996 65.7642C145.531 65.3778 144.951 65.1847 144.258 65.1847C143.548 65.1847 142.957 65.3778 142.485 65.7642C142.019 66.1506 141.67 66.6705 141.437 67.3239C141.21 67.9716 141.096 68.696 141.096 69.4972C141.096 70.2926 141.21 71.0142 141.437 71.6619C141.67 72.3097 142.019 72.8267 142.485 73.2131C142.957 73.5937 143.548 73.7841 144.258 73.7841ZM161.476 70.4943V62.9091H164.561V76H161.57V73.6733H161.433C161.138 74.4062 160.652 75.0057 159.976 75.4716C159.305 75.9375 158.479 76.1705 157.496 76.1705C156.638 76.1705 155.879 75.9801 155.22 75.5994C154.567 75.2131 154.055 74.6534 153.686 73.9205C153.317 73.1818 153.132 72.2898 153.132 71.2443V62.9091H156.217V70.767C156.217 71.5966 156.445 72.2557 156.899 72.7443C157.354 73.233 157.95 73.4773 158.689 73.4773C159.143 73.4773 159.584 73.3665 160.01 73.1449C160.436 72.9233 160.786 72.5938 161.058 72.1562C161.337 71.7131 161.476 71.1591 161.476 70.4943ZM167.734 76V62.9091H170.725V65.0909H170.862C171.1 64.3352 171.509 63.7528 172.089 63.3438C172.674 62.929 173.342 62.7216 174.092 62.7216C174.262 62.7216 174.452 62.7301 174.663 62.7472C174.879 62.7585 175.058 62.7784 175.2 62.8068V65.6449C175.069 65.5994 174.862 65.5597 174.577 65.5256C174.299 65.4858 174.029 65.4659 173.768 65.4659C173.205 65.4659 172.7 65.5881 172.251 65.8324C171.808 66.071 171.458 66.4034 171.202 66.8295C170.947 67.2557 170.819 67.7472 170.819 68.304V76H167.734Z" fill="black"/>
<path d="M373 10C373 4.47715 377.477 0 383 0H545C550.523 0 555 4.47715 555 10V27.6471C555 33.1699 550.523 37.6471 545 37.6471H383C377.477 37.6471 373 33.1699 373 27.6471V10Z" fill="#FF8303"/>
<path d="M471.65 32.1768L473.559 20.5404H475.377L473.468 32.1768H471.65ZM466.44 29.2904L466.741 27.4722H475.832L475.531 29.2904H466.44ZM467.559 32.1768L469.468 20.5404H471.286L469.377 32.1768H467.559ZM467.105 25.2449L467.411 23.4268H476.502L476.195 25.2449H467.105ZM477.677 32.1768V20.5404H485.382V22.5688H480.137V25.3415H484.87V27.3699H480.137V32.1768H477.677ZM487.036 32.1768V20.5404H494.741V22.5688H489.497V25.3415H494.23V27.3699H489.497V32.1768H487.036ZM500.668 32.3358C499.793 32.3358 499.015 32.1938 498.333 31.9097C497.655 31.6218 497.123 31.2298 496.737 30.7336C496.35 30.2374 496.157 29.6749 496.157 29.0461C496.157 28.5612 496.267 28.1162 496.487 27.7108C496.71 27.3018 497.013 26.9627 497.396 26.6938C497.778 26.4211 498.206 26.2468 498.68 26.1711V26.0915C498.059 25.9665 497.555 25.6654 497.168 25.1881C496.782 24.7071 496.589 24.1483 496.589 23.512C496.589 22.9097 496.765 22.3737 497.117 21.904C497.47 21.4305 497.953 21.0593 498.566 20.7904C499.184 20.5177 499.884 20.3813 500.668 20.3813C501.453 20.3813 502.151 20.5177 502.765 20.7904C503.383 21.0631 503.867 21.4362 504.22 21.9097C504.572 22.3794 504.75 22.9135 504.754 23.512C504.75 24.1521 504.553 24.7108 504.163 25.1881C503.773 25.6654 503.273 25.9665 502.663 26.0915V26.1711C503.129 26.2468 503.551 26.4211 503.93 26.6938C504.312 26.9627 504.615 27.3018 504.839 27.7108C505.066 28.1162 505.182 28.5612 505.186 29.0461C505.182 29.6749 504.987 30.2374 504.6 30.7336C504.214 31.2298 503.68 31.6218 502.998 31.9097C502.32 32.1938 501.543 32.3358 500.668 32.3358ZM500.668 30.529C501.059 30.529 501.4 30.459 501.691 30.3188C501.983 30.1749 502.21 29.9779 502.373 29.7279C502.54 29.4741 502.623 29.1824 502.623 28.8529C502.623 28.5158 502.538 28.2184 502.367 27.9608C502.197 27.6995 501.966 27.4949 501.674 27.3472C501.383 27.1957 501.047 27.1199 500.668 27.1199C500.293 27.1199 499.958 27.1957 499.663 27.3472C499.367 27.4949 499.134 27.6995 498.964 27.9608C498.797 28.2184 498.714 28.5158 498.714 28.8529C498.714 29.1824 498.795 29.4741 498.958 29.7279C499.121 29.9779 499.35 30.1749 499.646 30.3188C499.941 30.459 500.282 30.529 500.668 30.529ZM500.668 25.3302C500.994 25.3302 501.284 25.2639 501.538 25.1313C501.792 24.9987 501.99 24.815 502.134 24.5802C502.278 24.3453 502.35 24.0745 502.35 23.7677C502.35 23.4646 502.278 23.1995 502.134 22.9722C501.99 22.7412 501.793 22.5612 501.543 22.4324C501.293 22.2999 501.002 22.2336 500.668 22.2336C500.339 22.2336 500.047 22.2999 499.793 22.4324C499.54 22.5612 499.341 22.7412 499.197 22.9722C499.057 23.1995 498.987 23.4646 498.987 23.7677C498.987 24.0745 499.059 24.3453 499.203 24.5802C499.347 24.815 499.545 24.9987 499.799 25.1313C500.053 25.2639 500.343 25.3302 500.668 25.3302ZM511.207 32.3358C510.358 32.3358 509.603 32.19 508.94 31.8983C508.281 31.6029 507.76 31.1976 507.377 30.6824C506.999 30.1635 506.803 29.565 506.792 28.887H509.269C509.284 29.1711 509.377 29.4211 509.548 29.637C509.722 29.8491 509.953 30.0139 510.241 30.1313C510.529 30.2487 510.853 30.3074 511.213 30.3074C511.588 30.3074 511.919 30.2412 512.207 30.1086C512.495 29.976 512.72 29.7923 512.883 29.5574C513.046 29.3226 513.127 29.0518 513.127 28.7449C513.127 28.4343 513.04 28.1597 512.866 27.9211C512.695 27.6787 512.449 27.4893 512.127 27.3529C511.809 27.2165 511.43 27.1483 510.991 27.1483H509.906V25.3415H510.991C511.362 25.3415 511.69 25.2771 511.974 25.1483C512.262 25.0196 512.485 24.8415 512.644 24.6143C512.803 24.3832 512.883 24.1143 512.883 23.8074C512.883 23.5158 512.813 23.2601 512.673 23.0404C512.536 22.8169 512.343 22.6427 512.093 22.5177C511.847 22.3927 511.559 22.3302 511.23 22.3302C510.896 22.3302 510.591 22.3908 510.315 22.512C510.038 22.6294 509.817 22.798 509.65 23.0177C509.483 23.2374 509.394 23.4949 509.383 23.7904H507.025C507.036 23.1199 507.228 22.529 507.599 22.0177C507.97 21.5063 508.47 21.1067 509.099 20.8188C509.731 20.5271 510.445 20.3813 511.241 20.3813C512.044 20.3813 512.747 20.5271 513.349 20.8188C513.951 21.1105 514.419 21.5044 514.752 22.0006C515.089 22.493 515.256 23.0461 515.252 23.6597C515.256 24.3112 515.053 24.8548 514.644 25.2904C514.239 25.726 513.711 26.0025 513.059 26.1199V26.2108C513.915 26.3207 514.567 26.618 515.014 27.1029C515.464 27.584 515.688 28.1862 515.684 28.9097C515.688 29.5726 515.497 30.1616 515.11 30.6768C514.728 31.1919 514.199 31.5972 513.525 31.8927C512.851 32.1881 512.078 32.3358 511.207 32.3358ZM522.015 32.4324C521.038 32.4287 520.197 32.1881 519.492 31.7108C518.792 31.2336 518.252 30.5423 517.873 29.637C517.498 28.7317 517.312 27.6427 517.316 26.3699C517.316 25.101 517.504 24.0196 517.879 23.1256C518.258 22.2317 518.797 21.5518 519.498 21.0858C520.203 20.6162 521.042 20.3813 522.015 20.3813C522.989 20.3813 523.826 20.6162 524.526 21.0858C525.231 21.5555 525.773 22.2374 526.151 23.1313C526.53 24.0215 526.718 25.101 526.714 26.3699C526.714 27.6465 526.525 28.7374 526.146 29.6427C525.771 30.548 525.233 31.2393 524.532 31.7165C523.831 32.1938 522.992 32.4324 522.015 32.4324ZM522.015 30.3927C522.682 30.3927 523.214 30.0574 523.612 29.387C524.009 28.7165 524.206 27.7108 524.203 26.3699C524.203 25.4874 524.112 24.7525 523.93 24.1654C523.752 23.5783 523.498 23.137 523.168 22.8415C522.843 22.5461 522.458 22.3983 522.015 22.3983C521.352 22.3983 520.822 22.7298 520.424 23.3927C520.026 24.0555 519.826 25.048 519.822 26.3699C519.822 27.2639 519.911 28.0101 520.089 28.6086C520.271 29.2033 520.526 29.6502 520.856 29.9495C521.186 30.2449 521.572 30.3927 522.015 30.3927ZM532.769 32.3358C531.921 32.3358 531.165 32.19 530.502 31.8983C529.843 31.6029 529.322 31.1976 528.94 30.6824C528.561 30.1635 528.366 29.565 528.355 28.887H530.832C530.847 29.1711 530.94 29.4211 531.11 29.637C531.284 29.8491 531.516 30.0139 531.803 30.1313C532.091 30.2487 532.415 30.3074 532.775 30.3074C533.15 30.3074 533.481 30.2412 533.769 30.1086C534.057 29.976 534.283 29.7923 534.445 29.5574C534.608 29.3226 534.69 29.0518 534.69 28.7449C534.69 28.4343 534.603 28.1597 534.428 27.9211C534.258 27.6787 534.012 27.4893 533.69 27.3529C533.372 27.2165 532.993 27.1483 532.553 27.1483H531.468V25.3415H532.553C532.925 25.3415 533.252 25.2771 533.536 25.1483C533.824 25.0196 534.048 24.8415 534.207 24.6143C534.366 24.3832 534.445 24.1143 534.445 23.8074C534.445 23.5158 534.375 23.2601 534.235 23.0404C534.099 22.8169 533.906 22.6427 533.656 22.5177C533.409 22.3927 533.122 22.3302 532.792 22.3302C532.459 22.3302 532.154 22.3908 531.877 22.512C531.601 22.6294 531.379 22.798 531.213 23.0177C531.046 23.2374 530.957 23.4949 530.945 23.7904H528.588C528.599 23.1199 528.79 22.529 529.161 22.0177C529.533 21.5063 530.033 21.1067 530.661 20.8188C531.294 20.5271 532.008 20.3813 532.803 20.3813C533.606 20.3813 534.309 20.5271 534.911 20.8188C535.514 21.1105 535.981 21.5044 536.315 22.0006C536.652 22.493 536.819 23.0461 536.815 23.6597C536.819 24.3112 536.616 24.8548 536.207 25.2904C535.802 25.726 535.273 26.0025 534.622 26.1199V26.2108C535.478 26.3207 536.129 26.618 536.576 27.1029C537.027 27.584 537.25 28.1862 537.247 28.9097C537.25 29.5726 537.059 30.1616 536.673 30.6768C536.29 31.1919 535.762 31.5972 535.088 31.8927C534.413 32.1881 533.641 32.3358 532.769 32.3358Z" fill="white"/>
<path d="M373.986 63.5653C373.918 62.8778 373.625 62.3437 373.108 61.9631C372.591 61.5824 371.889 61.392 371.003 61.392C370.401 61.392 369.892 61.4773 369.477 61.6477C369.063 61.8125 368.744 62.0426 368.523 62.3381C368.307 62.6335 368.199 62.9688 368.199 63.3438C368.188 63.6562 368.253 63.929 368.395 64.1619C368.543 64.3949 368.744 64.5966 369 64.767C369.256 64.9318 369.551 65.0767 369.886 65.2017C370.222 65.321 370.58 65.4233 370.96 65.5085L372.528 65.8835C373.29 66.054 373.989 66.2812 374.625 66.5653C375.261 66.8494 375.813 67.1989 376.278 67.6136C376.744 68.0284 377.105 68.517 377.361 69.0795C377.622 69.642 377.756 70.2869 377.761 71.0142C377.756 72.0824 377.483 73.0085 376.943 73.7926C376.409 74.571 375.636 75.1761 374.625 75.608C373.619 76.0341 372.406 76.2472 370.986 76.2472C369.577 76.2472 368.349 76.0312 367.304 75.5994C366.264 75.1676 365.452 74.5284 364.866 73.6818C364.287 72.8295 363.983 71.7756 363.955 70.5199H367.526C367.565 71.1051 367.733 71.5937 368.028 71.9858C368.33 72.3722 368.73 72.6648 369.23 72.8636C369.736 73.0568 370.307 73.1534 370.943 73.1534C371.568 73.1534 372.111 73.0625 372.571 72.8807C373.037 72.6989 373.398 72.446 373.653 72.1222C373.909 71.7983 374.037 71.4261 374.037 71.0057C374.037 70.6136 373.92 70.2841 373.688 70.017C373.46 69.75 373.125 69.5227 372.682 69.3352C372.244 69.1477 371.707 68.9773 371.071 68.8239L369.17 68.3466C367.699 67.9886 366.537 67.429 365.685 66.6676C364.832 65.9062 364.409 64.8807 364.415 63.5909C364.409 62.5341 364.69 61.6108 365.259 60.821C365.832 60.0312 366.619 59.4148 367.619 58.9716C368.619 58.5284 369.756 58.3068 371.028 58.3068C372.324 58.3068 373.455 58.5284 374.42 58.9716C375.392 59.4148 376.148 60.0312 376.688 60.821C377.227 61.6108 377.506 62.5256 377.523 63.5653H373.986ZM386.141 76.2557C384.795 76.2557 383.636 75.983 382.664 75.4375C381.698 74.8864 380.954 74.108 380.431 73.1023C379.908 72.0909 379.647 70.8949 379.647 69.5142C379.647 68.1676 379.908 66.9858 380.431 65.9688C380.954 64.9517 381.69 64.1591 382.638 63.5909C383.593 63.0227 384.712 62.7386 385.996 62.7386C386.86 62.7386 387.664 62.8778 388.408 63.1562C389.158 63.429 389.812 63.8409 390.369 64.392C390.931 64.9432 391.369 65.6364 391.681 66.4716C391.994 67.3011 392.15 68.2727 392.15 69.3864V70.3835H381.096V68.1335H388.732C388.732 67.6108 388.619 67.1477 388.391 66.7443C388.164 66.3409 387.849 66.0256 387.445 65.7983C387.048 65.5653 386.585 65.4489 386.056 65.4489C385.505 65.4489 385.016 65.5767 384.59 65.8324C384.17 66.0824 383.84 66.4205 383.602 66.8466C383.363 67.267 383.241 67.7358 383.235 68.2528V70.392C383.235 71.0398 383.354 71.5994 383.593 72.071C383.837 72.5426 384.181 72.9062 384.624 73.1619C385.067 73.4176 385.593 73.5455 386.201 73.5455C386.604 73.5455 386.974 73.4886 387.309 73.375C387.644 73.2614 387.931 73.0909 388.17 72.8636C388.408 72.6364 388.59 72.358 388.715 72.0284L392.073 72.25C391.903 73.0568 391.553 73.7614 391.025 74.3636C390.502 74.9602 389.826 75.4261 388.996 75.7614C388.173 76.0909 387.221 76.2557 386.141 76.2557ZM400.434 76.2557C399.093 76.2557 397.94 75.9716 396.974 75.4034C396.013 74.8295 395.275 74.0341 394.758 73.017C394.246 72 393.991 70.8295 393.991 69.5057C393.991 68.1648 394.249 66.9886 394.766 65.9773C395.289 64.9602 396.031 64.1676 396.991 63.5994C397.951 63.0256 399.093 62.7386 400.417 62.7386C401.559 62.7386 402.559 62.946 403.417 63.3608C404.275 63.7756 404.954 64.358 405.454 65.108C405.954 65.858 406.229 66.7386 406.281 67.75H402.854C402.758 67.0966 402.502 66.571 402.087 66.1733C401.678 65.7699 401.141 65.5682 400.477 65.5682C399.914 65.5682 399.423 65.7216 399.002 66.0284C398.587 66.3295 398.263 66.7699 398.031 67.3494C397.798 67.929 397.681 68.6307 397.681 69.4545C397.681 70.2898 397.795 71 398.022 71.5852C398.255 72.1705 398.582 72.6165 399.002 72.9233C399.423 73.2301 399.914 73.3835 400.477 73.3835C400.891 73.3835 401.263 73.2983 401.593 73.1278C401.928 72.9574 402.204 72.7102 402.42 72.3864C402.641 72.0568 402.786 71.6619 402.854 71.2017H406.281C406.224 72.2017 405.951 73.0824 405.462 73.8438C404.979 74.5994 404.312 75.1903 403.46 75.6165C402.607 76.0426 401.599 76.2557 400.434 76.2557ZM414.52 76.2557C413.196 76.2557 412.051 75.9744 411.085 75.4119C410.125 74.8437 409.384 74.054 408.861 73.0426C408.338 72.0256 408.077 70.8466 408.077 69.5057C408.077 68.1534 408.338 66.9716 408.861 65.9602C409.384 64.9432 410.125 64.1534 411.085 63.5909C412.051 63.0227 413.196 62.7386 414.52 62.7386C415.844 62.7386 416.986 63.0227 417.946 63.5909C418.912 64.1534 419.656 64.9432 420.179 65.9602C420.702 66.9716 420.963 68.1534 420.963 69.5057C420.963 70.8466 420.702 72.0256 420.179 73.0426C419.656 74.054 418.912 74.8437 417.946 75.4119C416.986 75.9744 415.844 76.2557 414.52 76.2557ZM414.537 73.4432C415.139 73.4432 415.642 73.2727 416.045 72.9318C416.449 72.5852 416.753 72.1136 416.957 71.517C417.168 70.9205 417.273 70.2415 417.273 69.4801C417.273 68.7188 417.168 68.0398 416.957 67.4432C416.753 66.8466 416.449 66.375 416.045 66.0284C415.642 65.6818 415.139 65.5085 414.537 65.5085C413.929 65.5085 413.418 65.6818 413.003 66.0284C412.594 66.375 412.284 66.8466 412.074 67.4432C411.869 68.0398 411.767 68.7188 411.767 69.4801C411.767 70.2415 411.869 70.9205 412.074 71.517C412.284 72.1136 412.594 72.5852 413.003 72.9318C413.418 73.2727 413.929 73.4432 414.537 73.4432ZM426.955 68.4318V76H423.324V62.9091H426.784V65.2188H426.938C427.227 64.4574 427.713 63.8551 428.395 63.4119C429.077 62.9631 429.903 62.7386 430.875 62.7386C431.784 62.7386 432.577 62.9375 433.253 63.3352C433.929 63.733 434.455 64.3011 434.83 65.0398C435.205 65.7727 435.392 66.6477 435.392 67.6648V76H431.761V68.3125C431.767 67.5114 431.563 66.8864 431.148 66.4375C430.733 65.983 430.162 65.7557 429.435 65.7557C428.946 65.7557 428.514 65.8608 428.139 66.071C427.77 66.2812 427.48 66.5881 427.27 66.9915C427.065 67.3892 426.96 67.8693 426.955 68.4318ZM443.077 76.2131C442.083 76.2131 441.183 75.9574 440.376 75.446C439.575 74.929 438.938 74.1705 438.467 73.1705C438.001 72.1648 437.768 70.9318 437.768 69.4716C437.768 67.9716 438.009 66.7244 438.492 65.7301C438.975 64.7301 439.617 63.983 440.418 63.4886C441.225 62.9886 442.109 62.7386 443.069 62.7386C443.802 62.7386 444.413 62.8636 444.901 63.1136C445.396 63.358 445.793 63.6648 446.094 64.0341C446.401 64.3977 446.634 64.7557 446.793 65.108H446.904V58.5455H450.526V76H446.947V73.9034H446.793C446.623 74.267 446.381 74.6278 446.069 74.9858C445.762 75.3381 445.362 75.6307 444.867 75.8636C444.379 76.0966 443.782 76.2131 443.077 76.2131ZM444.228 73.3239C444.813 73.3239 445.308 73.1648 445.711 72.8466C446.12 72.5227 446.433 72.071 446.648 71.4915C446.87 70.9119 446.981 70.233 446.981 69.4545C446.981 68.6761 446.873 68 446.657 67.4261C446.441 66.8523 446.129 66.4091 445.719 66.0966C445.31 65.7841 444.813 65.6278 444.228 65.6278C443.631 65.6278 443.129 65.7898 442.719 66.1136C442.31 66.4375 442.001 66.8864 441.79 67.4602C441.58 68.0341 441.475 68.6989 441.475 69.4545C441.475 70.2159 441.58 70.8892 441.79 71.4744C442.006 72.054 442.316 72.5085 442.719 72.8381C443.129 73.1619 443.631 73.3239 444.228 73.3239ZM457.244 76.2472C456.409 76.2472 455.665 76.1023 455.011 75.8125C454.358 75.517 453.841 75.0824 453.46 74.5085C453.085 73.929 452.898 73.2074 452.898 72.3438C452.898 71.6165 453.031 71.0057 453.298 70.5114C453.565 70.017 453.929 69.6193 454.389 69.3182C454.849 69.017 455.372 68.7898 455.957 68.6364C456.548 68.483 457.168 68.375 457.815 68.3125C458.577 68.233 459.19 68.1591 459.656 68.0909C460.122 68.017 460.46 67.9091 460.67 67.767C460.881 67.625 460.986 67.4148 460.986 67.1364V67.0852C460.986 66.5455 460.815 66.1278 460.474 65.8324C460.139 65.5369 459.662 65.3892 459.043 65.3892C458.389 65.3892 457.869 65.5341 457.483 65.8239C457.097 66.108 456.841 66.4659 456.716 66.8977L453.358 66.625C453.528 65.8295 453.864 65.142 454.364 64.5625C454.864 63.9773 455.509 63.5284 456.298 63.2159C457.094 62.8977 458.014 62.7386 459.06 62.7386C459.787 62.7386 460.483 62.8239 461.148 62.9943C461.818 63.1648 462.412 63.429 462.929 63.7869C463.452 64.1449 463.864 64.6051 464.165 65.1676C464.466 65.7244 464.616 66.392 464.616 67.1705V76H461.173V74.1847H461.071C460.861 74.5938 460.58 74.9545 460.227 75.267C459.875 75.5739 459.452 75.8153 458.957 75.9915C458.463 76.1619 457.892 76.2472 457.244 76.2472ZM458.284 73.7415C458.818 73.7415 459.29 73.6364 459.699 73.4261C460.108 73.2102 460.429 72.9205 460.662 72.5568C460.895 72.1932 461.011 71.7812 461.011 71.321V69.9318C460.898 70.0057 460.741 70.0739 460.543 70.1364C460.349 70.1932 460.131 70.2472 459.886 70.2983C459.642 70.3437 459.398 70.3864 459.153 70.4261C458.909 70.4602 458.688 70.4915 458.489 70.5199C458.063 70.5824 457.69 70.6818 457.372 70.8182C457.054 70.9545 456.807 71.1392 456.631 71.3722C456.455 71.5994 456.366 71.8835 456.366 72.2244C456.366 72.7188 456.545 73.0966 456.903 73.358C457.267 73.6136 457.727 73.7415 458.284 73.7415ZM467.433 76V62.9091H470.953V65.1932H471.089C471.328 64.3807 471.729 63.767 472.291 63.3523C472.854 62.9318 473.501 62.7216 474.234 62.7216C474.416 62.7216 474.612 62.733 474.822 62.7557C475.033 62.7784 475.217 62.8097 475.376 62.8494V66.071C475.206 66.0199 474.97 65.9744 474.669 65.9347C474.368 65.8949 474.092 65.875 473.842 65.875C473.308 65.875 472.831 65.9915 472.411 66.2244C471.996 66.4517 471.666 66.7699 471.422 67.179C471.183 67.5881 471.064 68.0597 471.064 68.5938V76H467.433ZM479.893 80.9091C479.433 80.9091 479.001 80.8722 478.598 80.7983C478.2 80.7301 477.871 80.642 477.609 80.5341L478.428 77.8239C478.854 77.9545 479.237 78.0256 479.578 78.0369C479.925 78.0483 480.223 77.9688 480.473 77.7983C480.729 77.6278 480.936 77.3381 481.095 76.929L481.308 76.375L476.612 62.9091H480.43L483.141 72.5227H483.277L486.013 62.9091H489.857L484.768 77.4148C484.524 78.1193 484.192 78.733 483.771 79.2557C483.357 79.7841 482.831 80.1903 482.195 80.4744C481.558 80.7642 480.791 80.9091 479.893 80.9091ZM503.184 76.2557C501.843 76.2557 500.69 75.9716 499.724 75.4034C498.763 74.8295 498.025 74.0341 497.508 73.017C496.996 72 496.741 70.8295 496.741 69.5057C496.741 68.1648 496.999 66.9886 497.516 65.9773C498.039 64.9602 498.781 64.1676 499.741 63.5994C500.701 63.0256 501.843 62.7386 503.167 62.7386C504.309 62.7386 505.309 62.946 506.167 63.3608C507.025 63.7756 507.704 64.358 508.204 65.108C508.704 65.858 508.979 66.7386 509.031 67.75H505.604C505.508 67.0966 505.252 66.571 504.837 66.1733C504.428 65.7699 503.891 65.5682 503.227 65.5682C502.664 65.5682 502.173 65.7216 501.752 66.0284C501.337 66.3295 501.013 66.7699 500.781 67.3494C500.548 67.929 500.431 68.6307 500.431 69.4545C500.431 70.2898 500.545 71 500.772 71.5852C501.005 72.1705 501.332 72.6165 501.752 72.9233C502.173 73.2301 502.664 73.3835 503.227 73.3835C503.641 73.3835 504.013 73.2983 504.343 73.1278C504.678 72.9574 504.954 72.7102 505.17 72.3864C505.391 72.0568 505.536 71.6619 505.604 71.2017H509.031C508.974 72.2017 508.701 73.0824 508.212 73.8438C507.729 74.5994 507.062 75.1903 506.21 75.6165C505.357 76.0426 504.349 76.2557 503.184 76.2557ZM517.27 76.2557C515.946 76.2557 514.801 75.9744 513.835 75.4119C512.875 74.8437 512.134 74.054 511.611 73.0426C511.088 72.0256 510.827 70.8466 510.827 69.5057C510.827 68.1534 511.088 66.9716 511.611 65.9602C512.134 64.9432 512.875 64.1534 513.835 63.5909C514.801 63.0227 515.946 62.7386 517.27 62.7386C518.594 62.7386 519.736 63.0227 520.696 63.5909C521.662 64.1534 522.406 64.9432 522.929 65.9602C523.452 66.9716 523.713 68.1534 523.713 69.5057C523.713 70.8466 523.452 72.0256 522.929 73.0426C522.406 74.054 521.662 74.8437 520.696 75.4119C519.736 75.9744 518.594 76.2557 517.27 76.2557ZM517.287 73.4432C517.889 73.4432 518.392 73.2727 518.795 72.9318C519.199 72.5852 519.503 72.1136 519.707 71.517C519.918 70.9205 520.023 70.2415 520.023 69.4801C520.023 68.7188 519.918 68.0398 519.707 67.4432C519.503 66.8466 519.199 66.375 518.795 66.0284C518.392 65.6818 517.889 65.5085 517.287 65.5085C516.679 65.5085 516.168 65.6818 515.753 66.0284C515.344 66.375 515.034 66.8466 514.824 67.4432C514.619 68.0398 514.517 68.7188 514.517 69.4801C514.517 70.2415 514.619 70.9205 514.824 71.517C515.034 72.1136 515.344 72.5852 515.753 72.9318C516.168 73.2727 516.679 73.4432 517.287 73.4432ZM529.705 58.5455V76H526.074V58.5455H529.705ZM538.528 76.2557C537.204 76.2557 536.059 75.9744 535.093 75.4119C534.133 74.8437 533.391 74.054 532.869 73.0426C532.346 72.0256 532.085 70.8466 532.085 69.5057C532.085 68.1534 532.346 66.9716 532.869 65.9602C533.391 64.9432 534.133 64.1534 535.093 63.5909C536.059 63.0227 537.204 62.7386 538.528 62.7386C539.852 62.7386 540.994 63.0227 541.954 63.5909C542.92 64.1534 543.664 64.9432 544.187 65.9602C544.71 66.9716 544.971 68.1534 544.971 69.5057C544.971 70.8466 544.71 72.0256 544.187 73.0426C543.664 74.054 542.92 74.8437 541.954 75.4119C540.994 75.9744 539.852 76.2557 538.528 76.2557ZM538.545 73.4432C539.147 73.4432 539.65 73.2727 540.053 72.9318C540.457 72.5852 540.761 72.1136 540.965 71.517C541.175 70.9205 541.281 70.2415 541.281 69.4801C541.281 68.7188 541.175 68.0398 540.965 67.4432C540.761 66.8466 540.457 66.375 540.053 66.0284C539.65 65.6818 539.147 65.5085 538.545 65.5085C537.937 65.5085 537.425 65.6818 537.011 66.0284C536.602 66.375 536.292 66.8466 536.082 67.4432C535.877 68.0398 535.775 68.7188 535.775 69.4801C535.775 70.2415 535.877 70.9205 536.082 71.517C536.292 72.1136 536.602 72.5852 537.011 72.9318C537.425 73.2727 537.937 73.4432 538.545 73.4432ZM555.727 70.4261V62.9091H559.357V76H555.871V73.6222H555.735C555.44 74.3892 554.948 75.0057 554.261 75.4716C553.579 75.9375 552.746 76.1705 551.763 76.1705C550.888 76.1705 550.119 75.9716 549.454 75.5739C548.789 75.1761 548.269 74.6108 547.894 73.8778C547.525 73.1449 547.337 72.267 547.332 71.2443V62.9091H550.962V70.5966C550.968 71.3693 551.175 71.9801 551.585 72.429C551.994 72.8778 552.542 73.1023 553.229 73.1023C553.667 73.1023 554.076 73.0028 554.457 72.804C554.837 72.5994 555.144 72.2983 555.377 71.9006C555.616 71.5028 555.732 71.0114 555.727 70.4261ZM562.261 76V62.9091H565.781V65.1932H565.918C566.156 64.3807 566.557 63.767 567.119 63.3523C567.682 62.9318 568.33 62.7216 569.062 62.7216C569.244 62.7216 569.44 62.733 569.651 62.7557C569.861 62.7784 570.045 62.8097 570.205 62.8494V66.071C570.034 66.0199 569.798 65.9744 569.497 65.9347C569.196 65.8949 568.92 65.875 568.67 65.875C568.136 65.875 567.659 65.9915 567.239 66.2244C566.824 66.4517 566.494 66.7699 566.25 67.179C566.011 67.5881 565.892 68.0597 565.892 68.5938V76H562.261Z" fill="black"/>
</svg>
