<svg width="87" height="28" viewBox="0 0 87 28" fill="none" xmlns="http://www.w3.org/2000/svg">
<path d="M14.982 23.778V27H0.186V1.152H4.02V23.778H14.982ZM32.8073 17.37L28.9733 7.344C28.6973 6.66 28.4213 5.796 28.1453 4.752C28.0133 5.268 27.8753 5.748 27.7313 6.192C27.5993 6.636 27.4673 7.032 27.3353 7.38L23.5193 17.37H32.8073ZM40.3853 27H37.4333C37.0973 27 36.8213 26.916 36.6053 26.748C36.3893 26.58 36.2333 26.364 36.1373 26.1L33.8513 20.106H22.4573L20.1713 26.1C20.0873 26.328 19.9313 26.538 19.7033 26.73C19.4753 26.91 19.1993 27 18.8753 27H15.9233L26.2193 1.152H30.0893L40.3853 27ZM59.0632 4.356H50.8552V27H47.0392V4.356H38.7952V1.152H59.0632V4.356ZM86.1352 14.076C86.1352 16.008 85.8232 17.784 85.1992 19.404C84.5872 21.012 83.7172 22.404 82.5892 23.58C81.4612 24.744 80.1112 25.65 78.5392 26.298C76.9672 26.946 75.2212 27.27 73.3012 27.27C71.3932 27.27 69.6472 26.946 68.0632 26.298C66.4912 25.65 65.1412 24.744 64.0132 23.58C62.8972 22.404 62.0272 21.012 61.4032 19.404C60.7792 17.784 60.4672 16.008 60.4672 14.076C60.4672 12.156 60.7792 10.386 61.4032 8.766C62.0272 7.146 62.8972 5.754 64.0132 4.59C65.1412 3.414 66.4912 2.502 68.0632 1.854C69.6472 1.194 71.3932 0.864 73.3012 0.864C75.2212 0.864 76.9672 1.194 78.5392 1.854C80.1112 2.502 81.4612 3.414 82.5892 4.59C83.7172 5.754 84.5872 7.146 85.1992 8.766C85.8232 10.386 86.1352 12.156 86.1352 14.076ZM82.2112 14.076C82.2112 12.54 82.0012 11.16 81.5812 9.936C81.1612 8.712 80.5612 7.674 79.7812 6.822C79.0132 5.97 78.0772 5.316 76.9732 4.86C75.8812 4.404 74.6572 4.176 73.3012 4.176C71.9452 4.176 70.7152 4.404 69.6112 4.86C68.5192 5.316 67.5832 5.97 66.8032 6.822C66.0232 7.674 65.4232 8.712 65.0032 9.936C64.5832 11.16 64.3732 12.54 64.3732 14.076C64.3732 15.624 64.5832 17.01 65.0032 18.234C65.4232 19.446 66.0232 20.478 66.8032 21.33C67.5832 22.182 68.5192 22.836 69.6112 23.292C70.7152 23.736 71.9452 23.958 73.3012 23.958C74.6572 23.958 75.8812 23.736 76.9732 23.292C78.0772 22.836 79.0132 22.182 79.7812 21.33C80.5612 20.478 81.1612 19.446 81.5812 18.234C82.0012 17.01 82.2112 15.624 82.2112 14.076Z" fill="black"/>
</svg>
