<svg width="101" height="68" viewBox="0 0 101 68" fill="none" xmlns="http://www.w3.org/2000/svg">
<g filter="url(#filter0_f_922_5645)">
<path d="M10.0021 31.3515C9.85373 25.4545 17.5503 23.262 17.5503 23.262C17.5503 23.262 16.7249 19.6675 21.5443 16.3329C28.6169 11.4392 35.4315 19.3499 35.4315 19.3499C35.4315 19.3499 35.6241 10.0759 42.4667 10.0006C48.7159 9.9317 51.847 16.3329 51.847 16.3329C51.847 16.3329 52.6055 13.6275 58.7357 11.8572C64.862 10.0879 68.5557 16.9297 68.5557 16.9297C68.5557 16.9297 73.0922 14.2569 78.2291 15.5704C84.2828 17.1182 82.6628 24.3561 82.6628 24.3561C82.6628 24.3561 90.5089 25.7402 90.9805 31.3515C91.4831 37.3319 82.1132 39.3747 82.1132 39.3747C82.1132 39.3747 85.7738 44.9561 82.6628 48.8235C79.5219 52.7281 72.4397 51.078 72.4397 51.078C72.4397 51.078 66.6753 57.5601 60.6777 57.5098C55.1195 57.4632 47.3035 51.94 47.3035 51.94C47.3035 51.94 42.6942 57.8775 37.3735 57.5098C32.4703 57.1709 28.1032 51.94 28.1032 51.94C28.1032 51.94 18.9259 53.045 16.4877 47.1658C14.3514 42.0146 20.042 37.9823 20.042 37.9823C20.042 37.9823 10.151 37.2671 10.0021 31.3515Z" fill="#E9A6A6" fill-opacity="0.25"/>
</g>
<path d="M10.0021 31.3515C9.85373 25.4545 17.5503 23.262 17.5503 23.262C17.5503 23.262 16.7249 19.6675 21.5443 16.3329C28.6169 11.4392 35.4315 19.3499 35.4315 19.3499C35.4315 19.3499 35.6241 10.0759 42.4667 10.0006C48.7159 9.9317 51.847 16.3329 51.847 16.3329C51.847 16.3329 52.6055 13.6275 58.7357 11.8572C64.862 10.0879 68.5557 16.9297 68.5557 16.9297C68.5557 16.9297 73.0922 14.2569 78.2291 15.5704C84.2828 17.1182 82.6628 24.3561 82.6628 24.3561C82.6628 24.3561 90.5089 25.7402 90.9805 31.3515C91.4831 37.3319 82.1132 39.3747 82.1132 39.3747C82.1132 39.3747 85.7738 44.9561 82.6628 48.8235C79.5219 52.7281 72.4397 51.078 72.4397 51.078C72.4397 51.078 66.6753 57.5601 60.6777 57.5098C55.1195 57.4632 47.3035 51.94 47.3035 51.94C47.3035 51.94 42.6942 57.8775 37.3735 57.5098C32.4703 57.1709 28.1032 51.94 28.1032 51.94C28.1032 51.94 18.9259 53.045 16.4877 47.1658C14.3514 42.0146 20.042 37.9823 20.042 37.9823C20.042 37.9823 10.151 37.2671 10.0021 31.3515Z" fill="white" stroke="#E9A6A6" stroke-width="0.96075"/>
<path d="M40 34H58" stroke="#CD5C5C" stroke-width="2" stroke-linecap="round" stroke-linejoin="round"/>
<path d="M40 28H58" stroke="#CD5C5C" stroke-width="2" stroke-linecap="round" stroke-linejoin="round"/>
<path d="M40 40H58" stroke="#CD5C5C" stroke-width="2" stroke-linecap="round" stroke-linejoin="round"/>
<defs>
<filter id="filter0_f_922_5645" x="0" y="0" width="101" height="67.5262" filterUnits="userSpaceOnUse" color-interpolation-filters="sRGB">
<feFlood flood-opacity="0" result="BackgroundImageFix"/>
<feBlend mode="normal" in="SourceGraphic" in2="BackgroundImageFix" result="shape"/>
<feGaussianBlur stdDeviation="5" result="effect1_foregroundBlur_922_5645"/>
</filter>
</defs>
</svg>
